<mxfile host="Electron" modified="2024-02-20T07:26:14.782Z" agent="Mozilla/5.0 (Windows NT 10.0; Win64; x64) AppleWebKit/537.36 (KHTML, like Gecko) draw.io/23.0.2 Chrome/120.0.6099.109 Electron/28.1.0 Safari/537.36" etag="3i9TbGuU3kVzvSHhBqhR" version="23.0.2" type="device">
  <diagram id="R2lEEEUBdFMjLlhIrx00" name="Page-1">
    <mxGraphModel dx="1043" dy="606" grid="1" gridSize="10" guides="1" tooltips="1" connect="1" arrows="1" fold="1" page="1" pageScale="1" pageWidth="1100" pageHeight="850" math="0" shadow="0" extFonts="Permanent Marker^https://fonts.googleapis.com/css?family=Permanent+Marker">
      <root>
        <mxCell id="0" />
        <mxCell id="1" parent="0" />
        <mxCell id="5675zIO9UkRCYpf4Nj2r-31" value="Cliente" style="shape=umlActor;verticalLabelPosition=bottom;verticalAlign=top;html=1;sketch=1;hachureGap=4;jiggle=2;curveFitting=1;fontFamily=Architects Daughter;fontSource=https%3A%2F%2Ffonts.googleapis.com%2Fcss%3Ffamily%3DArchitects%2BDaughter;fontSize=20;" vertex="1" parent="1">
          <mxGeometry x="80" y="340" width="30" height="60" as="geometry" />
        </mxCell>
        <mxCell id="5675zIO9UkRCYpf4Nj2r-35" value="" style="endArrow=none;html=1;rounded=0;sketch=1;hachureGap=4;jiggle=2;curveFitting=1;fontFamily=Architects Daughter;fontSource=https%3A%2F%2Ffonts.googleapis.com%2Fcss%3Ffamily%3DArchitects%2BDaughter;fontSize=16;" edge="1" parent="1">
          <mxGeometry width="50" height="50" relative="1" as="geometry">
            <mxPoint x="110" y="350" as="sourcePoint" />
            <mxPoint x="240" y="200" as="targetPoint" />
          </mxGeometry>
        </mxCell>
        <mxCell id="5675zIO9UkRCYpf4Nj2r-36" value="Inicio sesion" style="shape=umlBoundary;whiteSpace=wrap;html=1;sketch=1;hachureGap=4;jiggle=2;curveFitting=1;fontFamily=Architects Daughter;fontSource=https%3A%2F%2Ffonts.googleapis.com%2Fcss%3Ffamily%3DArchitects%2BDaughter;fontSize=20;" vertex="1" parent="1">
          <mxGeometry x="220" y="140" width="100" height="80" as="geometry" />
        </mxCell>
        <mxCell id="5675zIO9UkRCYpf4Nj2r-37" value="" style="endArrow=none;html=1;rounded=0;sketch=1;hachureGap=4;jiggle=2;curveFitting=1;fontFamily=Architects Daughter;fontSource=https%3A%2F%2Ffonts.googleapis.com%2Fcss%3Ffamily%3DArchitects%2BDaughter;fontSize=16;" edge="1" parent="1">
          <mxGeometry width="50" height="50" relative="1" as="geometry">
            <mxPoint x="110" y="360" as="sourcePoint" />
            <mxPoint x="240" y="270" as="targetPoint" />
          </mxGeometry>
        </mxCell>
        <mxCell id="5675zIO9UkRCYpf4Nj2r-38" value="Registrar usuario" style="shape=umlBoundary;whiteSpace=wrap;html=1;sketch=1;hachureGap=4;jiggle=2;curveFitting=1;fontFamily=Architects Daughter;fontSource=https%3A%2F%2Ffonts.googleapis.com%2Fcss%3Ffamily%3DArchitects%2BDaughter;fontSize=20;" vertex="1" parent="1">
          <mxGeometry x="220" y="230" width="100" height="80" as="geometry" />
        </mxCell>
        <mxCell id="5675zIO9UkRCYpf4Nj2r-39" value="" style="endArrow=none;html=1;rounded=0;sketch=1;hachureGap=4;jiggle=2;curveFitting=1;fontFamily=Architects Daughter;fontSource=https%3A%2F%2Ffonts.googleapis.com%2Fcss%3Ffamily%3DArchitects%2BDaughter;fontSize=16;" edge="1" parent="1" target="5675zIO9UkRCYpf4Nj2r-40">
          <mxGeometry width="50" height="50" relative="1" as="geometry">
            <mxPoint x="110" y="370" as="sourcePoint" />
            <mxPoint x="230" y="340" as="targetPoint" />
          </mxGeometry>
        </mxCell>
        <mxCell id="5675zIO9UkRCYpf4Nj2r-40" value="Recuperar contraseÃ±a" style="shape=umlBoundary;whiteSpace=wrap;html=1;sketch=1;hachureGap=4;jiggle=2;curveFitting=1;fontFamily=Architects Daughter;fontSource=https%3A%2F%2Ffonts.googleapis.com%2Fcss%3Ffamily%3DArchitects%2BDaughter;fontSize=20;" vertex="1" parent="1">
          <mxGeometry x="220" y="320" width="100" height="80" as="geometry" />
        </mxCell>
        <mxCell id="5675zIO9UkRCYpf4Nj2r-41" value="" style="endArrow=none;html=1;rounded=0;sketch=1;hachureGap=4;jiggle=2;curveFitting=1;fontFamily=Architects Daughter;fontSource=https%3A%2F%2Ffonts.googleapis.com%2Fcss%3Ffamily%3DArchitects%2BDaughter;fontSize=16;entryX=0.202;entryY=0.253;entryDx=0;entryDy=0;entryPerimeter=0;" edge="1" parent="1" target="5675zIO9UkRCYpf4Nj2r-42">
          <mxGeometry width="50" height="50" relative="1" as="geometry">
            <mxPoint x="110" y="373.5" as="sourcePoint" />
            <mxPoint x="230" y="420" as="targetPoint" />
          </mxGeometry>
        </mxCell>
        <mxCell id="5675zIO9UkRCYpf4Nj2r-42" value="Compras" style="shape=umlBoundary;whiteSpace=wrap;html=1;sketch=1;hachureGap=4;jiggle=2;curveFitting=1;fontFamily=Architects Daughter;fontSource=https%3A%2F%2Ffonts.googleapis.com%2Fcss%3Ffamily%3DArchitects%2BDaughter;fontSize=20;" vertex="1" parent="1">
          <mxGeometry x="220" y="410" width="100" height="80" as="geometry" />
        </mxCell>
        <mxCell id="5675zIO9UkRCYpf4Nj2r-43" value="" style="endArrow=none;html=1;rounded=0;sketch=1;hachureGap=4;jiggle=2;curveFitting=1;fontFamily=Architects Daughter;fontSource=https%3A%2F%2Ffonts.googleapis.com%2Fcss%3Ffamily%3DArchitects%2BDaughter;fontSize=16;entryX=0.234;entryY=0.258;entryDx=0;entryDy=0;entryPerimeter=0;" edge="1" parent="1" target="5675zIO9UkRCYpf4Nj2r-44">
          <mxGeometry width="50" height="50" relative="1" as="geometry">
            <mxPoint x="110" y="380" as="sourcePoint" />
            <mxPoint x="230" y="510" as="targetPoint" />
          </mxGeometry>
        </mxCell>
        <mxCell id="5675zIO9UkRCYpf4Nj2r-44" value="Facturas" style="shape=umlBoundary;whiteSpace=wrap;html=1;sketch=1;hachureGap=4;jiggle=2;curveFitting=1;fontFamily=Architects Daughter;fontSource=https%3A%2F%2Ffonts.googleapis.com%2Fcss%3Ffamily%3DArchitects%2BDaughter;fontSize=20;" vertex="1" parent="1">
          <mxGeometry x="220" y="500" width="100" height="80" as="geometry" />
        </mxCell>
        <mxCell id="5675zIO9UkRCYpf4Nj2r-45" value="" style="endArrow=none;html=1;rounded=0;sketch=1;hachureGap=4;jiggle=2;curveFitting=1;fontFamily=Architects Daughter;fontSource=https%3A%2F%2Ffonts.googleapis.com%2Fcss%3Ffamily%3DArchitects%2BDaughter;fontSize=16;entryX=0.194;entryY=0.313;entryDx=0;entryDy=0;entryPerimeter=0;" edge="1" parent="1" target="5675zIO9UkRCYpf4Nj2r-46">
          <mxGeometry width="50" height="50" relative="1" as="geometry">
            <mxPoint x="110" y="390" as="sourcePoint" />
            <mxPoint x="230" y="620" as="targetPoint" />
          </mxGeometry>
        </mxCell>
        <mxCell id="5675zIO9UkRCYpf4Nj2r-46" value="Metodo pago" style="shape=umlBoundary;whiteSpace=wrap;html=1;sketch=1;hachureGap=4;jiggle=2;curveFitting=1;fontFamily=Architects Daughter;fontSource=https%3A%2F%2Ffonts.googleapis.com%2Fcss%3Ffamily%3DArchitects%2BDaughter;fontSize=20;" vertex="1" parent="1">
          <mxGeometry x="220" y="590" width="100" height="80" as="geometry" />
        </mxCell>
        <mxCell id="5675zIO9UkRCYpf4Nj2r-47" value="" style="endArrow=none;html=1;rounded=0;sketch=1;hachureGap=4;jiggle=2;curveFitting=1;fontFamily=Architects Daughter;fontSource=https%3A%2F%2Ffonts.googleapis.com%2Fcss%3Ffamily%3DArchitects%2BDaughter;fontSize=16;" edge="1" parent="1">
          <mxGeometry width="50" height="50" relative="1" as="geometry">
            <mxPoint x="320" y="190" as="sourcePoint" />
            <mxPoint x="400" y="190" as="targetPoint" />
          </mxGeometry>
        </mxCell>
        <mxCell id="5675zIO9UkRCYpf4Nj2r-48" value="" style="endArrow=none;html=1;rounded=0;sketch=1;hachureGap=4;jiggle=2;curveFitting=1;fontFamily=Architects Daughter;fontSource=https%3A%2F%2Ffonts.googleapis.com%2Fcss%3Ffamily%3DArchitects%2BDaughter;fontSize=16;" edge="1" parent="1">
          <mxGeometry width="50" height="50" relative="1" as="geometry">
            <mxPoint x="320" y="269.5" as="sourcePoint" />
            <mxPoint x="400" y="269.5" as="targetPoint" />
          </mxGeometry>
        </mxCell>
        <mxCell id="5675zIO9UkRCYpf4Nj2r-49" value="" style="endArrow=none;html=1;rounded=0;sketch=1;hachureGap=4;jiggle=2;curveFitting=1;fontFamily=Architects Daughter;fontSource=https%3A%2F%2Ffonts.googleapis.com%2Fcss%3Ffamily%3DArchitects%2BDaughter;fontSize=16;" edge="1" parent="1">
          <mxGeometry width="50" height="50" relative="1" as="geometry">
            <mxPoint x="320" y="359.5" as="sourcePoint" />
            <mxPoint x="400" y="359.5" as="targetPoint" />
          </mxGeometry>
        </mxCell>
        <mxCell id="5675zIO9UkRCYpf4Nj2r-50" value="" style="endArrow=none;html=1;rounded=0;sketch=1;hachureGap=4;jiggle=2;curveFitting=1;fontFamily=Architects Daughter;fontSource=https%3A%2F%2Ffonts.googleapis.com%2Fcss%3Ffamily%3DArchitects%2BDaughter;fontSize=16;" edge="1" parent="1">
          <mxGeometry width="50" height="50" relative="1" as="geometry">
            <mxPoint x="320" y="449.5" as="sourcePoint" />
            <mxPoint x="400" y="449.5" as="targetPoint" />
          </mxGeometry>
        </mxCell>
        <mxCell id="5675zIO9UkRCYpf4Nj2r-51" value="" style="endArrow=none;html=1;rounded=0;sketch=1;hachureGap=4;jiggle=2;curveFitting=1;fontFamily=Architects Daughter;fontSource=https%3A%2F%2Ffonts.googleapis.com%2Fcss%3Ffamily%3DArchitects%2BDaughter;fontSize=16;" edge="1" parent="1">
          <mxGeometry width="50" height="50" relative="1" as="geometry">
            <mxPoint x="320" y="539.5" as="sourcePoint" />
            <mxPoint x="400" y="539.5" as="targetPoint" />
          </mxGeometry>
        </mxCell>
        <mxCell id="5675zIO9UkRCYpf4Nj2r-52" value="" style="endArrow=none;html=1;rounded=0;sketch=1;hachureGap=4;jiggle=2;curveFitting=1;fontFamily=Architects Daughter;fontSource=https%3A%2F%2Ffonts.googleapis.com%2Fcss%3Ffamily%3DArchitects%2BDaughter;fontSize=16;" edge="1" parent="1" target="5675zIO9UkRCYpf4Nj2r-53">
          <mxGeometry width="50" height="50" relative="1" as="geometry">
            <mxPoint x="320" y="640" as="sourcePoint" />
            <mxPoint x="400" y="640" as="targetPoint" />
          </mxGeometry>
        </mxCell>
        <mxCell id="5675zIO9UkRCYpf4Nj2r-53" value="Indicar metodo de pago" style="ellipse;shape=umlControl;whiteSpace=wrap;html=1;sketch=1;hachureGap=4;jiggle=2;curveFitting=1;fontFamily=Architects Daughter;fontSource=https%3A%2F%2Ffonts.googleapis.com%2Fcss%3Ffamily%3DArchitects%2BDaughter;fontSize=20;" vertex="1" parent="1">
          <mxGeometry x="365" y="600" width="115" height="80" as="geometry" />
        </mxCell>
        <mxCell id="5675zIO9UkRCYpf4Nj2r-54" value="Solicitar factura" style="ellipse;shape=umlControl;whiteSpace=wrap;html=1;sketch=1;hachureGap=4;jiggle=2;curveFitting=1;fontFamily=Architects Daughter;fontSource=https%3A%2F%2Ffonts.googleapis.com%2Fcss%3Ffamily%3DArchitects%2BDaughter;fontSize=20;" vertex="1" parent="1">
          <mxGeometry x="400" y="500" width="115" height="80" as="geometry" />
        </mxCell>
        <mxCell id="5675zIO9UkRCYpf4Nj2r-55" value="Seleccionar productos" style="ellipse;shape=umlControl;whiteSpace=wrap;html=1;sketch=1;hachureGap=4;jiggle=2;curveFitting=1;fontFamily=Architects Daughter;fontSource=https%3A%2F%2Ffonts.googleapis.com%2Fcss%3Ffamily%3DArchitects%2BDaughter;fontSize=20;" vertex="1" parent="1">
          <mxGeometry x="400" y="410" width="115" height="80" as="geometry" />
        </mxCell>
        <mxCell id="5675zIO9UkRCYpf4Nj2r-56" value="Realiza protocolo de recuperacion" style="ellipse;shape=umlControl;whiteSpace=wrap;html=1;sketch=1;hachureGap=4;jiggle=2;curveFitting=1;fontFamily=Architects Daughter;fontSource=https%3A%2F%2Ffonts.googleapis.com%2Fcss%3Ffamily%3DArchitects%2BDaughter;fontSize=20;" vertex="1" parent="1">
          <mxGeometry x="395" y="320" width="115" height="80" as="geometry" />
        </mxCell>
        <mxCell id="5675zIO9UkRCYpf4Nj2r-57" value="Validar registro" style="ellipse;shape=umlControl;whiteSpace=wrap;html=1;sketch=1;hachureGap=4;jiggle=2;curveFitting=1;fontFamily=Architects Daughter;fontSource=https%3A%2F%2Ffonts.googleapis.com%2Fcss%3Ffamily%3DArchitects%2BDaughter;fontSize=20;" vertex="1" parent="1">
          <mxGeometry x="395" y="220" width="115" height="80" as="geometry" />
        </mxCell>
        <mxCell id="5675zIO9UkRCYpf4Nj2r-58" value="Validar usuario" style="ellipse;shape=umlControl;whiteSpace=wrap;html=1;sketch=1;hachureGap=4;jiggle=2;curveFitting=1;fontFamily=Architects Daughter;fontSource=https%3A%2F%2Ffonts.googleapis.com%2Fcss%3Ffamily%3DArchitects%2BDaughter;fontSize=20;" vertex="1" parent="1">
          <mxGeometry x="400" y="140" width="115" height="80" as="geometry" />
        </mxCell>
        <mxCell id="5675zIO9UkRCYpf4Nj2r-59" value="" style="endArrow=none;html=1;rounded=0;sketch=1;hachureGap=4;jiggle=2;curveFitting=1;fontFamily=Architects Daughter;fontSource=https%3A%2F%2Ffonts.googleapis.com%2Fcss%3Ffamily%3DArchitects%2BDaughter;fontSize=16;" edge="1" parent="1">
          <mxGeometry width="50" height="50" relative="1" as="geometry">
            <mxPoint x="515" y="449.5" as="sourcePoint" />
            <mxPoint x="560" y="450" as="targetPoint" />
          </mxGeometry>
        </mxCell>
        <mxCell id="5675zIO9UkRCYpf4Nj2r-60" value="Agregar al carrito" style="ellipse;shape=umlControl;whiteSpace=wrap;html=1;sketch=1;hachureGap=4;jiggle=2;curveFitting=1;fontFamily=Architects Daughter;fontSource=https%3A%2F%2Ffonts.googleapis.com%2Fcss%3Ffamily%3DArchitects%2BDaughter;fontSize=20;" vertex="1" parent="1">
          <mxGeometry x="560" y="410" width="80" height="80" as="geometry" />
        </mxCell>
        <mxCell id="5675zIO9UkRCYpf4Nj2r-63" value="" style="endArrow=none;html=1;rounded=0;sketch=1;hachureGap=4;jiggle=2;curveFitting=1;fontFamily=Architects Daughter;fontSource=https%3A%2F%2Ffonts.googleapis.com%2Fcss%3Ffamily%3DArchitects%2BDaughter;fontSize=16;" edge="1" parent="1">
          <mxGeometry width="50" height="50" relative="1" as="geometry">
            <mxPoint x="515" y="175" as="sourcePoint" />
            <mxPoint x="790" y="360" as="targetPoint" />
          </mxGeometry>
        </mxCell>
        <mxCell id="5675zIO9UkRCYpf4Nj2r-64" value="Sistema" style="ellipse;shape=umlEntity;whiteSpace=wrap;html=1;sketch=1;hachureGap=4;jiggle=2;curveFitting=1;fontFamily=Architects Daughter;fontSource=https%3A%2F%2Ffonts.googleapis.com%2Fcss%3Ffamily%3DArchitects%2BDaughter;fontSize=20;" vertex="1" parent="1">
          <mxGeometry x="780" y="345" width="80" height="80" as="geometry" />
        </mxCell>
        <mxCell id="5675zIO9UkRCYpf4Nj2r-65" value="" style="endArrow=none;html=1;rounded=0;sketch=1;hachureGap=4;jiggle=2;curveFitting=1;fontFamily=Architects Daughter;fontSource=https%3A%2F%2Ffonts.googleapis.com%2Fcss%3Ffamily%3DArchitects%2BDaughter;fontSize=16;entryX=0.002;entryY=0.325;entryDx=0;entryDy=0;entryPerimeter=0;" edge="1" parent="1" target="5675zIO9UkRCYpf4Nj2r-64">
          <mxGeometry width="50" height="50" relative="1" as="geometry">
            <mxPoint x="510" y="265" as="sourcePoint" />
            <mxPoint x="639" y="490" as="targetPoint" />
          </mxGeometry>
        </mxCell>
        <mxCell id="5675zIO9UkRCYpf4Nj2r-66" value="" style="endArrow=none;html=1;rounded=0;sketch=1;hachureGap=4;jiggle=2;curveFitting=1;fontFamily=Architects Daughter;fontSource=https%3A%2F%2Ffonts.googleapis.com%2Fcss%3Ffamily%3DArchitects%2BDaughter;fontSize=16;entryX=0;entryY=0.5;entryDx=0;entryDy=0;" edge="1" parent="1" target="5675zIO9UkRCYpf4Nj2r-64">
          <mxGeometry width="50" height="50" relative="1" as="geometry">
            <mxPoint x="515" y="365" as="sourcePoint" />
            <mxPoint x="644" y="590" as="targetPoint" />
          </mxGeometry>
        </mxCell>
        <mxCell id="5675zIO9UkRCYpf4Nj2r-67" value="" style="endArrow=none;html=1;rounded=0;sketch=1;hachureGap=4;jiggle=2;curveFitting=1;fontFamily=Architects Daughter;fontSource=https%3A%2F%2Ffonts.googleapis.com%2Fcss%3Ffamily%3DArchitects%2BDaughter;fontSize=16;entryX=0.382;entryY=1.065;entryDx=0;entryDy=0;entryPerimeter=0;" edge="1" parent="1" target="5675zIO9UkRCYpf4Nj2r-64">
          <mxGeometry width="50" height="50" relative="1" as="geometry">
            <mxPoint x="515" y="540" as="sourcePoint" />
            <mxPoint x="644" y="765" as="targetPoint" />
          </mxGeometry>
        </mxCell>
        <mxCell id="5675zIO9UkRCYpf4Nj2r-68" value="" style="endArrow=none;html=1;rounded=0;sketch=1;hachureGap=4;jiggle=2;curveFitting=1;fontFamily=Architects Daughter;fontSource=https%3A%2F%2Ffonts.googleapis.com%2Fcss%3Ffamily%3DArchitects%2BDaughter;fontSize=16;" edge="1" parent="1">
          <mxGeometry width="50" height="50" relative="1" as="geometry">
            <mxPoint x="480" y="640" as="sourcePoint" />
            <mxPoint x="830" y="430" as="targetPoint" />
          </mxGeometry>
        </mxCell>
        <mxCell id="5675zIO9UkRCYpf4Nj2r-69" value="" style="endArrow=none;html=1;rounded=0;sketch=1;hachureGap=4;jiggle=2;curveFitting=1;fontFamily=Architects Daughter;fontSource=https%3A%2F%2Ffonts.googleapis.com%2Fcss%3Ffamily%3DArchitects%2BDaughter;fontSize=16;entryX=-0.008;entryY=0.705;entryDx=0;entryDy=0;entryPerimeter=0;" edge="1" parent="1" target="5675zIO9UkRCYpf4Nj2r-64">
          <mxGeometry width="50" height="50" relative="1" as="geometry">
            <mxPoint x="640" y="445" as="sourcePoint" />
            <mxPoint x="769" y="670" as="targetPoint" />
          </mxGeometry>
        </mxCell>
      </root>
    </mxGraphModel>
  </diagram>
</mxfile>
